<svg width="75" height="75" viewBox="0 0 75 75" xmlns="http://www.w3.org/2000/svg" xmlns:xlink="http://www.w3.org/1999/xlink">
  <defs>
    <radialGradient cx="17.654%" cy="13.231%" fx="17.654%" fy="13.231%" r="100%" id="b">
      <stop stop-color="#273441" offset="0%" />
      <stop stop-color="#273441" offset="100%" />
    </radialGradient>
    <circle id="a" cx="37.5" cy="37.5" r="37.5" />
    <radialGradient cx="60.59%" cy="38.526%" fx="60.59%" fy="38.526%" r="86.598%" id="c">
      <stop stop-color="#C0CEBA" offset="0%" />
      <stop stop-color="#8BADB2" offset="25.417%" />
      <stop stop-color="#3D7270" offset="67.245%" />
      <stop stop-color="#2D484B" offset="100%" />
    </radialGradient>
    <radialGradient cx="31.745%" cy="14.645%" fx="31.745%" fy="14.645%" r="76.024%" id="e">
      <stop stop-opacity="0" offset="0%" />
      <stop stop-opacity=".041" offset="29.982%" />
      <stop stop-color="#270446" stop-opacity=".407" offset="100%" />
    </radialGradient>
  </defs>
  <g fill="none" fill-rule="evenodd">
    <mask id="d" fill="#fff">
      <use xlink:href="#a" />
    </mask>
    <use fill="url(#b)" xlink:href="#a" />
    <path fill="url(#c)" opacity=".9" mask="url(#d)" d="M-2.987-2.987H75V75H-2.987z" />
    <path fill="url(#e)" style="mix-blend-mode:overlay" mask="url(#d)" d="M-5.11-7.467h95.575V76.99H-5.11z" />
    <path fill="#FFF" mask="url(#d)" d="M74 13l2 30-34-13v-9M43 20H30l1.25-3h10.5M31 77c-1.82-.654-4-3-4-3l4-39-3-3h17l-3 3 6 40s-1.463 1.833-4 2c-2.046.763-7-1-7-1s-3.404 1.824-6 1z" />
  </g>
</svg>
